<?xml version="1.0" encoding="utf-8"?><!DOCTYPE svg  PUBLIC '-//W3C//DTD SVG 1.1//EN'  'http://www.w3.org/Graphics/SVG/1.1/DTD/svg11.dtd'><svg width="1682" height="1047" viewBox="0 0 1682 1047" xmlns="http://www.w3.org/2000/svg" xmlns:xlink="http://www.w3.org/1999/xlink"><view id="ar-down" viewBox="0 0 11 10"/><svg width="11" height="10" viewBox="0 0 11 10"><defs><style>.acls-1{fill-rule:evenodd}</style></defs><path id="aarr-down.svg" class="acls-1" d="M457.5 1647l-5.513-10h11.026z" transform="translate(-452 -1637)"/></svg><view id="ar-left" viewBox="11 10 10 11"/><svg width="10" height="11" viewBox="0 0 10 11" x="11" y="10"><defs><style>.bcls-1{fill-rule:evenodd}</style></defs><path id="bar-left.svg" class="bcls-1" d="M1098 23.5l10-5.513v11.024z" transform="translate(-1098 -18)"/></svg><view id="close" viewBox="21 21 32 32"/><svg height="32" viewBox="0 0 32 32" width="32" x="21" y="21"><path d="M17.459 16.014l8.239-8.194a.992.992 0 0 0 0-1.414 1.016 1.016 0 0 0-1.428 0l-8.232 8.187L7.73 6.284a1.009 1.009 0 0 0-1.428 0 1.015 1.015 0 0 0 0 1.432l8.302 8.303-8.332 8.286a.994.994 0 0 0 0 1.414 1.016 1.016 0 0 0 1.428 0l8.325-8.279 8.275 8.276a1.009 1.009 0 0 0 1.428 0 1.015 1.015 0 0 0 0-1.432l-8.269-8.27z" fill="#121313"/></svg><view id="cloud1" viewBox="53 53 524.562 261.219"/><svg width="524.562" height="261.219" viewBox="0 0 524.562 261.219" x="53" y="53"><defs><style>.dcls-1{fill:#fff;fill-rule:evenodd}</style></defs><path id="dcloud1.svg" class="dcls-1" d="M391 370c26.686-.474 45.916 4 62 14 4.228 2.63 8.463 5.967 12.5 9 2.224 1.671 5.717 6.956 8 8h4c2.021 1.222 4.752.3 7.5 1 5.139 1.308 10.9 2.109 16 4a109.853 109.853 0 0 1 19 9c3.717 2.312 7.3 7.022 12 8 3.057-2.792 8.45-2.666 13-4 14.538-4.261 35.854-3.481 49.5 1 35.713 11.727 57.013 32.561 68.5 68.5 2.756 8.623 4 17.641 4 29.5v8c-2.148 8.212-3.161 16.937-6 24.5-10.252 27.312-30.7 47.042-58 57.5-12.373 4.739-33.242 10.408-51 6a162.017 162.017 0 0 1-17.5-5c-10.642-4.046-21.861-8.406-29-16-5.024.209-9.249 2.766-13.5 4-5.362 1.557-10.989 1.281-16.5 2.5-5.863 1.3-20.971-2.179-23-1-2.713 1.529-4.25 4.5-6.5 6.5a122.865 122.865 0 0 1-16 12c-21.518 13.422-57.815 18.859-86.5 8a106.208 106.208 0 0 1-22.5-12c-3.537-2.487-6.843-7.479-11-9-2.434 3.153-6.222 5.15-9.5 7.5-16.687 11.963-45.22 24.923-74.5 17.5-8.654-2.194-15.857-2.5-23-6-25.117-12.3-42.79-30.276-54-56.5-3.2-7.477-3.873-16.759-6-25-1.348-5.222 0-18.194 1-22 1.368-5.184.433-9.254 2-14a130.5 130.5 0 0 1 8-19c14.224-27.165 32.873-42.077 65-51.5 11.806-3.463 32.413-4.733 45.5-1 8.972 2.559 18.592 5.5 26 10 4.369 2.653 8.378 6.139 13 8.5v-1c1.246-1.939.755-4.5 1.5-7 1.678-5.63 3.429-11.777 6-17 8.936-18.153 23.074-34.889 40.5-44.5a125.878 125.878 0 0 1 24.5-10c3.826-1.145 12.275-.959 15-3z" transform="translate(-142.438 -369.969)"/></svg><view id="cloud2" viewBox="578 315 649 347"/><svg width="649" height="347" viewBox="0 0 649 347" x="578" y="315"><defs><style>.ecls-1{fill:#fff;fill-rule:evenodd}</style></defs><path id="ecloud2.svg" d="M90.187 0h512.5c1.4 5.393 5.528 10.32 7.5 15.5 2.97 7.805 3.944 16.32 6 25 2.26 9.544-1.52 21.39-.5 29 .485 3.62-.87 10.072 0 12 2.675 4.662 8.334 7.288 11.5 11.5 5.568 7.41 11.185 15.484 15 24.5 2.653 6.27 4.264 13.553 6 20.5 2.93 11.724.806 28.54-2 38-8.223 27.722-21.854 45.51-44 59-7.423 4.52-16.952 7.44-26 10-4.432 1.253-12.12-.045-15.5 2.5a5.422 5.422 0 0 0-.5 3c1.912 3-.687 18.055-1.5 21-6.107 22.126-11.48 33.98-25.5 48a96.825 96.825 0 0 1-32 21.5c-5.553 2.263-12.068 3.538-18 5-16.547 4.08-36.37-.653-48-5-30.472-11.39-52.592-34.24-59.5-69h-4c-2.634-1.56-13.676-.934-17.5-2-5.98-1.667-13.018-3.268-18.5-6-2.714-1.353-4.752-3.54-8.5-4-2.317 7.13-12.314 16.715-18 21-1.768 1.332-3.182 3.7-5 5a114.066 114.066 0 0 1-30 15c-28.017 9.354-61.318-.75-79-12.5a96.016 96.016 0 0 1-23.5-23c-3.29-4.587-3.52-11.416-11.5-11.5-4.036 2.633-22.2-1.03-25.5-2-2.673-.787-3.948-.193-6.5-1a110.042 110.042 0 0 1-32.5-17 65.566 65.566 0 0 1-11.5-11c-1.62-2.148-2.884-5.41-5.5-6.5-3.385-2.133-13.16-2.873-17.5-4.5a107.384 107.384 0 0 1-24-13c-13.9-9.97-25.572-26.2-32-43.5-1.685-4.536-1.683-8.446-3-13.5-2.737-10.5-3.048-27.74 0-38.5 3.757-13.263 8.877-25.062 16-35 7.71-10.756 19.548-20.543 31.5-27a104.73 104.73 0 0 1 12.5-5.5c2.81-1.047 5.87-.856 8-2.5 3.463-4.05 4.207-10.92 7-15.5 3.887-6.374 9.033-11.883 13-18z" class="ecls-1"/></svg><view id="equalizer" viewBox="1227 662 32 32"/><svg width="32" height="32" viewBox="0 0 32 32" x="1227" y="662"><title>equalizer</title><path d="M14 4v-.5c0-.825-.675-1.5-1.5-1.5h-5C6.675 2 6 2.675 6 3.5V4H0v4h6v.5c0 .825.675 1.5 1.5 1.5h5c.825 0 1.5-.675 1.5-1.5V8h18V4H14zM8 8V4h4v4H8zm18 5.5c0-.825-.675-1.5-1.5-1.5h-5c-.825 0-1.5.675-1.5 1.5v.5H0v4h18v.5c0 .825.675 1.5 1.5 1.5h5c.825 0 1.5-.675 1.5-1.5V18h6v-4h-6v-.5zM20 18v-4h4v4h-4zm-6 5.5c0-.825-.675-1.5-1.5-1.5h-5c-.825 0-1.5.675-1.5 1.5v.5H0v4h6v.5c0 .825.675 1.5 1.5 1.5h5c.825 0 1.5-.675 1.5-1.5V28h18v-4H14v-.5zM8 28v-4h4v4H8z"/></svg><view id="fb" viewBox="1259 694 24 24"/><svg width="24" height="24" viewBox="0 0 24 24" x="1259" y="694"><defs><style>.gcls-1{fill-rule:evenodd}</style></defs><path id="gfb.svg" class="gcls-1" d="M978.531 2107v-8.9h4.049a.085.085 0 0 1 .05-.05c.1-.99.328-1.94.345-2.97h-4.444v-.1a2.953 2.953 0 0 1 0-1.38 1.666 1.666 0 0 1 .691-1.34c.629-.38 2.746-.21 3.753-.2v-2.96c-3.9-.3-6.363.3-7.308 3.16a25.192 25.192 0 0 0-.2 2.82H973.3v.1a2.192 2.192 0 0 0-.049.84v2.03a8.593 8.593 0 0 0 2.222.05v8.9a9.381 9.381 0 0 1-4-1.29 11.78 11.78 0 0 1-6.074-7.66 9.884 9.884 0 0 1-.395-2.87v-1.14c.3-1.02.339-2.17.691-3.11a12.164 12.164 0 0 1 7.161-7.18 28.754 28.754 0 0 1 3.012-.69 7.686 7.686 0 0 1 2.42.1c.563.14 1.01.05 1.531.2a13.126 13.126 0 0 1 3.259 1.38 12.25 12.25 0 0 1 5.531 7.17 11.971 11.971 0 0 1 0 6.09 11.684 11.684 0 0 1-6.074 7.71 9.185 9.185 0 0 1-4.004 1.29z" transform="translate(-965 -2083)"/></svg><view id="gp" viewBox="1283 718 24 24"/><svg width="24" height="24" viewBox="0 0 24 24" x="1283" y="718"><defs><style>.hcls-1{fill-rule:evenodd}</style></defs><path id="hgp.svg" class="hcls-1" d="M639.044 2980H641c.322.08.745.06 1.114.15a16.364 16.364 0 0 1 2.422.69 12.594 12.594 0 0 1 6.11 5.49c.2.37.28.72.461 1.12a12.4 12.4 0 0 1 0 9.21 12.112 12.112 0 0 1-6.956 6.6 26.3 26.3 0 0 1-3.074.69 8.025 8.025 0 0 1-2.152-.07c-.339-.09-.6 0-.923-.08a12.8 12.8 0 0 1-2.5-.77c-.386-.18-.747-.26-1.114-.46a12.152 12.152 0 0 1-5.649-6.49c-.153-.4-.178-.75-.308-1.19a10.785 10.785 0 0 1-.307-4.49 19.628 19.628 0 0 1 .538-2.3 12.673 12.673 0 0 1 6.687-7.18 13.745 13.745 0 0 1 2.19-.69 8.151 8.151 0 0 0 1.505-.23zm-1.806 6.03a6.269 6.269 0 0 1-.884.19 3.837 3.837 0 0 0-2 1.69 3.005 3.005 0 0 0-.076 2.07 2.619 2.619 0 0 0 2.767 2.07.809.809 0 0 1 .076.43 1.349 1.349 0 0 1 .077.69 10.3 10.3 0 0 1-1.46.27 3.607 3.607 0 0 0-2.383 2.15 1.948 1.948 0 0 0 .423 1.8c.754 1.03 3.421 1.71 5.188 1.11 1.311-.44 3.042-1.81 2.306-3.84a3.8 3.8 0 0 0-.461-.88c-.39-.53-1.68-1.1-1.73-1.84.724-.87 2.234-1.8 1.73-3.61-.105-.38-.33-.69-.423-1.07.413-.18 1.438-.64 1.23-1.16a4.392 4.392 0 0 0-1.384-.07h-3zm-.192 1.07a2.4 2.4 0 0 1 1.844 3.11 1.089 1.089 0 0 1-1.46.85 2.735 2.735 0 0 1-1.307-3.23 2.323 2.323 0 0 1 .692-.69.383.383 0 0 0 .231-.04zm6.763 5.26a11.784 11.784 0 0 0 .077 2.34h.077a.959.959 0 0 0 .961-.07 8.417 8.417 0 0 0 .077-2.23 9.9 9.9 0 0 1 2.19-.04.309.309 0 0 1 .154-.08 1.557 1.557 0 0 0 .039-.92.139.139 0 0 0-.077-.11 8.685 8.685 0 0 0-2.268-.08 9.544 9.544 0 0 1-.038-2.19.527.527 0 0 1-.077-.15 2.084 2.084 0 0 0-1-.04 6.483 6.483 0 0 0-.116 2.34 9.322 9.322 0 0 1-2.19.04 1.045 1.045 0 0 0-.154.12 1.488 1.488 0 0 0 0 .99 11.178 11.178 0 0 0 2.345.08zm-6.687 1.77a2.709 2.709 0 0 1 2.575 1.11 1.5 1.5 0 0 1-.346 1.8 3.027 3.027 0 0 1-3.843-.42 1.248 1.248 0 0 1-.269-1.11 2.289 2.289 0 0 1 1.307-1.23 4.348 4.348 0 0 0 .576-.15z" transform="translate(-628 -2980)"/></svg><view id="instagram" viewBox="1307 742 24 24"/><svg width="24" height="24" viewBox="0 0 24 24" x="1307" y="742"><defs><style>.icls-1{fill-rule:evenodd}</style></defs><path id="iinstagram.svg" class="icls-1" d="M519.1 3202c6.435-.11 10.394 3.27 12.118 7.84.217.58.387 1.25.559 1.9.113.43.087.93.186 1.34a7.581 7.581 0 0 1-.062 1.93c-.074.31.011.54-.062.84a20.38 20.38 0 0 1-.621 2.24c-.083.21-.088.39-.187.59a12.43 12.43 0 0 1-6.96 6.59 16.624 16.624 0 0 1-2.206.56c-.317.08-.685.06-.963.13a7.641 7.641 0 0 1-1.926-.06h-.376c-.365-.09-.776-.08-1.15-.19a19.719 19.719 0 0 1-2.33-.81 12.208 12.208 0 0 1-6.152-6.22 11.113 11.113 0 0 1-.559-1.81 11.326 11.326 0 0 1-.249-4.79 18.062 18.062 0 0 1 .5-2.02 12.366 12.366 0 0 1 6.774-7.19 14.968 14.968 0 0 1 2.33-.68 9.322 9.322 0 0 0 1.336-.19zm.093 5.6a1.44 1.44 0 0 1-.559.03h-1.4c-1.973 0-3.115.15-3.667 1.65a5.35 5.35 0 0 0-.124 1.65v6.19a6.811 6.811 0 0 0 .062 1.68 2.638 2.638 0 0 0 1.274 1.62c.828.43 2.462.25 3.667.25a12.26 12.26 0 0 0 2.423 0h.994a8.647 8.647 0 0 0 3.232-.25 2.624 2.624 0 0 0 1.211-1.37 4.45 4.45 0 0 0 .156-1.3c0-.13-.041-.36-.031-.44a14.959 14.959 0 0 0 .031-1.77v-3.18c0-1.36.09-2.84-.435-3.67a2.564 2.564 0 0 0-1.336-.96 7.716 7.716 0 0 0-2.02-.1zm3.6 1.59a12.337 12.337 0 0 1 2.113.03v2.05a10.485 10.485 0 0 1-2.113.04 10.082 10.082 0 0 1 0-2.12zm-3.138 2.68l.777.03a2.358 2.358 0 0 1 1.585 3.26 2.522 2.522 0 0 1-1.9 1.28 1.852 1.852 0 0 1-1.149-.25 2.294 2.294 0 0 1-1.3-1.59v-.37a1.767 1.767 0 0 1 .062-.75 2.516 2.516 0 0 1 1.336-1.46 3.892 3.892 0 0 0 .589-.15zm-4.971.99h1.864a4.921 4.921 0 0 1-.155.9 3.711 3.711 0 0 0 .5 2.31 4.085 4.085 0 0 0 2.268 1.61 3.711 3.711 0 0 0 3.542-1.24 4.321 4.321 0 0 0 .684-1.25c.062-.18.015-.32.062-.52a1.574 1.574 0 0 0 .062-.63 6.741 6.741 0 0 1-.186-1.18h1.833a7.307 7.307 0 0 1 .031 1.65v3.61a2.074 2.074 0 0 0-.062.4 1.218 1.218 0 0 1-.56.72 6.732 6.732 0 0 1-2.3.15h-4.722a4.769 4.769 0 0 1-2.424-.28c-.469-.34-.435-1.11-.435-1.92v-4.33z" transform="translate(-508 -3202)"/></svg><view id="like" viewBox="1331 766 26 23"/><svg width="26" height="23" viewBox="0 0 26 23" x="1331" y="766"><defs><style/></defs><path id="jlike.svg" class="jcls-1" d="M1045.2 83.091l-11.26 9.809-11.46-9.688zM1029 70a8 8 0 1 1-8 8 8 8 0 0 1 8-8zm10 0a8 8 0 1 1-8 8 8 8 0 0 1 8-8z" transform="translate(-1021 -70)"/></svg><view id="login" viewBox="1357 789 30 25"/><svg id="klogin.svg" width="30" height="25" viewBox="0 0 30 25" x="1357" y="789"><defs><style>.kcls-1{fill:none;stroke:#000;stroke-linecap:round;stroke-linejoin:round;stroke-width:1.8px}</style></defs><circle id="kЕліпс_3" data-name="Еліпс 3" class="kcls-1" cx="17.5" cy="12.406" r="11.5"/><path id="kБагатокутник_1_копія" data-name="Багатокутник 1 копія" class="kcls-2" d="M1100 55h16v3h-16v-3zm23 1.5l-10 5.513V50.989z" transform="translate(-1100 -44.094)"/></svg><view id="logo_min" viewBox="1387 814 156 101"/><svg width="156" height="101" viewBox="0 0 156 101" x="1387" y="814"><defs><style>.lcls-1{fill:#333234;fill-rule:evenodd}</style></defs><path id="llogo_min.svg" class="lcls-1" d="M789 271c4.314-.09 8.039 1.461 8 6-3.477 3.307-5.039 14.732-7 20-6.8 18.275-14.86 38.962-15 63-6.034-1.016-5.1-5-8.5-7-5.906-3.476-22.545-2.185-29 0a74.737 74.737 0 0 0-19 10c-1.589 1.153-5.546 4.316-6.5 6-.7 1.239.212 2.371-1 3h-2.5c-1.652-3.346-2.522-6.053-2.5-11.5l5-5.5c8.356-6.215 28.062-17.391 44.5-13 4.459 1.191 8.413 3.729 12.5 5 .361-15.821 9.709-29.8 12-44.5h-1c-.6 4.305-5.276 12.562-10.5 12.5-1.531-1.5-4.32-2.188-5.5-4-1.137-1.746-.079-2.957-2-4-.731 3.452-3.046 9.633-7 10-1.419-1.338-3.907-1.862-5-3.5-1.059-1.587-.455-4.806-1.5-6.5v.5c-5.95 6.025-12.319 22.21-22.5 23-2.48-2.03-4.678-2.7-5-7a12.532 12.532 0 0 0 3-3h.5v.5c1.186 1.036.735 1.261 3 1.5 4.086-3.213 12.829-5.186 13.5-11.5-3.215-.848-4.066-2.956-6-5-.317-10.447 2.184-26.667 9-29 3.483-2.335 8.373 1.421 11 2 .366-2.682 1.554-3.831 2-6.5 3.413.293 5.915 1.717 6 5.5-2.951 3.476-6.764 25.043-7 32h1c1.752-3.177 4.707-6.715 6-10 1.109-2.818.161-5.238 1-8a38.842 38.842 0 0 1 9-16c7.514-.6 8.636 1.17 14 3 .747-3.028 2.458-4.725 3-8zm-87 70h-2a89.089 89.089 0 0 0-6-7c.134-18.225 7.862-33.432 9-50.5h-1l-3.5 2c-.266 13.238-7.42 21.847-14.5 28.5h-4.5c-1.3-1.294-3.443-1.99-4.5-3.5-1.019-1.457-.311-2.134-2-3v.5c-4.2 4.9-4.681 16.154-13.5 16-2.8-1.988-4.618-.79-4.5-6 1.7-2.446.967-5.747 2-9 1.6-5.051 3.434-11.361 5-16.5.806-2.644 2.46-8.406 1-9.5v.5c-4.669 4.737-8.975 12.945-12 19l-3.5 10.5a3.373 3.373 0 0 1-2 .5c-3.242-3.117-4.7-2.961-4.5-10 1.472-1.74.83-4.847 1.5-7.5 1.556-6.164 3.016-12.523 2.5-18a5.489 5.489 0 0 0 1.5-1 1.708 1.708 0 0 1 1 .5 8.42 8.42 0 0 1 6.5 6.5c-1.408 2.016-2.912 10.319-3 13.5h.5v-.5c4.338-4.784 10.755-21.768 17-23 2.506 2.98 4.584 2.432 4.5 8.5-2.182 2.978-1.705 7.627-3 11.5-2.308 6.9-5.517 14.759-6 23h1v-1c2.032-2.088 7.1-10.248 8-13v-10c1.976-7.936 4.223-18.357 14-18.5 2.516 1.7 5.508 1.092 8.5 2.5 2.5 1.177 1.432 3.96 5 4.5.939-.947 2.171-1.426 3-2.5.715-1.042.314-1.782 1.5-2.5.608-.372.5-.068 2 0 3.387 3.288 5.18 3.165 5 10.5-1.82 2.6-2.827 8.845-3 12.5h.5v-.5c5.286-7.531 5.984-21.478 17-23 2.579 2.4 6.051 3.431 6.5 8 1.935 2.87-.3 9.255-1 11.5-2.652 8.475-3.734 16.934-15.5 16.5a1.808 1.808 0 0 0-1-.5c-.766-1.232-1.146-1.138-1.5-3 8.529-3.418 10.632-12.044 10.5-24a3.054 3.054 0 0 1-1-1 1.708 1.708 0 0 0-1 .5c-5.22 1.59-6.449 7.641-8.5 12.5-4 9.472-5.718 19.05-9 30-1.36 4.538-2.919 8.418-3 14.5zm66-29h1.5c2.959-9.806 13.261-20.374 15-31.5a7.855 7.855 0 0 0-2.5-.5c-8.838 8.605-13.994 14.255-14 32zm-77.5-31.5l.5 1.5h2v-.5a12.915 12.915 0 0 0-2.5-1zm59.5 0c-6.24 6.7-8.98 14.839-9 28h1v-.5c3.554-3.9 9.368-20.848 11-27a9.146 9.146 0 0 0-3-.5zm-63 3.5c-1.7 5.233-10.855 18.946-5.5 26a2.546 2.546 0 0 0 1.5.5c4.758-5.06 6.484-9.81 9-17.5.5-1.525 2.157-5.395 1.5-6.5a20.386 20.386 0 0 0-6.5-2.5z" transform="translate(-641 -271)"/></svg><view id="menu" viewBox="1543 915 24 24"/><svg version="1" viewBox="0 0 24 24" width="24" height="24" x="1543" y="915"><path fill="none" stroke="#000" stroke-miterlimit="10" stroke-width="2" d="M2 12h20M2 6h20M2 18h20"/></svg><view id="preloader" viewBox="1567 939 24.812 24.82"/><svg width="24.812" height="24.82" viewBox="0 0 24.812 24.82" x="1567" y="939"><defs><style>.ncls-1{fill:none;stroke:#000;stroke-linecap:round;stroke-linejoin:round;stroke-width:1.8px}</style></defs><circle id="npreloader.svg" class="ncls-1" cx="12.406" cy="12.41" r="11.5"/></svg><view id="search" viewBox="1592 964 18 18"/><svg width="18" height="18" viewBox="0 0 18 18" x="1592" y="964"><defs><style>.ocls-1{fill:none;stroke:#1a1a1a;stroke-linecap:round;stroke-linejoin:round;stroke-width:.3px;fill-rule:evenodd}</style></defs><path id="osearch.svg" class="ocls-1" d="M463 77.125A6.875 6.875 0 1 1 456.125 84 6.875 6.875 0 0 1 463 77.125zm-5.354 11.522l.708.707-5 5-.708-.707z" transform="translate(-452.531 -76.969)"/></svg><view id="shevron-down" viewBox="1610 982 37.469 19.469"/><svg width="37.469" height="19.469" viewBox="0 0 37.469 19.469" x="1610" y="982"><defs><style>.pcls-1{fill:none;stroke:#1a1a1a;stroke-linecap:round;stroke-linejoin:round;stroke-width:.3px;fill-rule:evenodd}</style></defs><path id="pshevron-down.svg" class="pcls-1" d="M581.646 621.353l.708-.706 18 18-.708.708zm36.529-.237l.709.709-18.059 18.06-.709-.71z" transform="translate(-581.531 -620.531)"/></svg><view id="shevron-right" viewBox="1648 1002 10 21"/><svg width="10" height="21" viewBox="0 0 10 21" x="1648" y="1002"><defs><style>.qcls-1{fill:none;stroke:#1a1a1a;stroke-linecap:round;stroke-linejoin:round;stroke-width:.3px;fill-rule:evenodd}</style></defs><path id="qshevron-right.svg" class="qcls-1" d="M150.448 1393.91l-.361-.4 9.193-10.06.362.4zm-.121-20.42l.362-.4 9.224 10.1-.363.39z" transform="translate(-149.969 -1373)"/></svg><view id="vk" viewBox="1658 1023 24 24"/><svg width="24" height="24" viewBox="0 0 24 24" x="1658" y="1023"><defs><style>.rcls-1{fill-rule:evenodd}</style></defs><path id="rvk.svg" class="rcls-1" d="M845.826 2144c6.659-.09 10.424 2.98 12.346 7.59a11.955 11.955 0 0 1-7.075 15.75c-.886.33-1.938.41-2.9.66h-1.614a10.052 10.052 0 0 1-4.416-1.04c-.265-.13-.5-.15-.76-.29a12.284 12.284 0 0 1-5.46-5.88 16.118 16.118 0 0 1-.57-1.9 11.116 11.116 0 0 1-.38-3.22v-.9c.218-.84.279-1.77.57-2.56a12.453 12.453 0 0 1 6.22-7.07 14.726 14.726 0 0 1 2.469-.86 6.475 6.475 0 0 0 1.57-.28zm-.9 7.21a.522.522 0 0 1-.332.09 1.433 1.433 0 0 0-.38.48h.047a1.439 1.439 0 0 1 .76.57c.476.61.077 2.46.048 3.27a.55.55 0 0 1-.523.24 5.814 5.814 0 0 1-.522-.43 15.6 15.6 0 0 1-1.472-2.42c-.232-.46-.346-1.25-.855-1.42a8.852 8.852 0 0 0-2.184 0 1.906 1.906 0 0 0-.807.05.655.655 0 0 0-.095.52 3 3 0 0 1 .285.61c.356.7.665 1.44 1.044 2.14 1.385 2.56 2.9 4.99 6.078 5.79a7.288 7.288 0 0 0 2.137 0c.35-.58.312-2.15 1.092-2.19a2.451 2.451 0 0 0 .38.19 6.206 6.206 0 0 1 .855.86 3.138 3.138 0 0 0 1.282 1.14 15.448 15.448 0 0 0 3.466 0 1.37 1.37 0 0 1 .19-.29c-.017-1.07-1.476-2.28-2.089-2.89a2.267 2.267 0 0 1-.618-.71c-.2-.63.5-1.13.713-1.43.613-.85 1.982-2.31 1.994-3.6a.734.734 0 0 0-.19-.1c-.435-.33-2.775-.13-3.466-.09-.53.74-.8 1.62-1.282 2.42-.223.36-.512.71-.76 1.04a1.345 1.345 0 0 1-.95.81c-.508-.81-.38-1.71-.38-2.99a1.938 1.938 0 0 0-.285-1.52c-.389-.3-2.461-.15-3.183-.14z" transform="translate(-835 -2144)"/></svg></svg>