<svg xmlns="http://www.w3.org/2000/svg" width="271.564" height="90.563" viewBox="0 0 271.564 90.563"><defs><style>.cls-1{fill-rule:evenodd;opacity:.2}</style></defs><path id="anim_shadow2.svg" class="cls-1" d="M843.5 495c51.579-.735 99.3 2.6 133 20 9.375 4.84 16.713 8.589 21.5 18 1 1.969 3.54 6.757 2 11-6.387 17.547-26.656 22.6-44.5 29-46.263 16.605-135.746 16.7-182 0-15.634-5.644-35.215-11.05-42.5-24.5-5.982-11.044 2-20.667 8.5-25.5 15.081-11.212 34.211-16.517 55.5-22 6.07-1.563 12.381-1.673 18-3 6.2-1.464 12.836-.746 18.5-2 4.152-.919 9.073.915 12-1z" transform="translate(-728.906 -494.906)"/></svg>