<svg xmlns="http://www.w3.org/2000/svg" width="524.562" height="261.219" viewBox="0 0 524.562 261.219"><defs><style>.cls-1{fill:#fff;fill-rule:evenodd}</style></defs><path id="cloud1.svg" class="cls-1" d="M391 370c26.686-.474 45.916 4 62 14 4.228 2.63 8.463 5.967 12.5 9 2.224 1.671 5.717 6.956 8 8h4c2.021 1.222 4.752.3 7.5 1 5.139 1.308 10.9 2.109 16 4a109.853 109.853 0 0 1 19 9c3.717 2.312 7.3 7.022 12 8 3.057-2.792 8.45-2.666 13-4 14.538-4.261 35.854-3.481 49.5 1 35.713 11.727 57.013 32.561 68.5 68.5 2.756 8.623 4 17.641 4 29.5v8c-2.148 8.212-3.161 16.937-6 24.5-10.252 27.312-30.7 47.042-58 57.5-12.373 4.739-33.242 10.408-51 6a162.017 162.017 0 0 1-17.5-5c-10.642-4.046-21.861-8.406-29-16-5.024.209-9.249 2.766-13.5 4-5.362 1.557-10.989 1.281-16.5 2.5-5.863 1.3-20.971-2.179-23-1-2.713 1.529-4.25 4.5-6.5 6.5a122.865 122.865 0 0 1-16 12c-21.518 13.422-57.815 18.859-86.5 8a106.208 106.208 0 0 1-22.5-12c-3.537-2.487-6.843-7.479-11-9-2.434 3.153-6.222 5.15-9.5 7.5-16.687 11.963-45.22 24.923-74.5 17.5-8.654-2.194-15.857-2.5-23-6-25.117-12.3-42.79-30.276-54-56.5-3.2-7.477-3.873-16.759-6-25-1.348-5.222 0-18.194 1-22 1.368-5.184.433-9.254 2-14a130.5 130.5 0 0 1 8-19c14.224-27.165 32.873-42.077 65-51.5 11.806-3.463 32.413-4.733 45.5-1 8.972 2.559 18.592 5.5 26 10 4.369 2.653 8.378 6.139 13 8.5v-1c1.246-1.939.755-4.5 1.5-7 1.678-5.63 3.429-11.777 6-17 8.936-18.153 23.074-34.889 40.5-44.5a125.878 125.878 0 0 1 24.5-10c3.826-1.145 12.275-.959 15-3z" transform="translate(-142.438 -369.969)"/></svg>