<svg xmlns="http://www.w3.org/2000/svg" width="24" height="24" viewBox="0 0 24 24"><defs><style>.cls-1{fill-rule:evenodd}</style></defs><path id="fb.svg" class="cls-1" d="M978.531 2107v-8.9h4.049a.085.085 0 0 1 .05-.05c.1-.99.328-1.94.345-2.97h-4.444v-.1a2.953 2.953 0 0 1 0-1.38 1.666 1.666 0 0 1 .691-1.34c.629-.38 2.746-.21 3.753-.2v-2.96c-3.9-.3-6.363.3-7.308 3.16a25.192 25.192 0 0 0-.2 2.82H973.3v.1a2.192 2.192 0 0 0-.049.84v2.03a8.593 8.593 0 0 0 2.222.05v8.9a9.381 9.381 0 0 1-4-1.29 11.78 11.78 0 0 1-6.074-7.66 9.884 9.884 0 0 1-.395-2.87v-1.14c.3-1.02.339-2.17.691-3.11a12.164 12.164 0 0 1 7.161-7.18 28.754 28.754 0 0 1 3.012-.69 7.686 7.686 0 0 1 2.42.1c.563.14 1.01.05 1.531.2a13.126 13.126 0 0 1 3.259 1.38 12.25 12.25 0 0 1 5.531 7.17 11.971 11.971 0 0 1 0 6.09 11.684 11.684 0 0 1-6.074 7.71 9.185 9.185 0 0 1-4.004 1.29z" transform="translate(-965 -2083)"/></svg>