<svg xmlns="http://www.w3.org/2000/svg" width="24" height="24" viewBox="0 0 24 24"><defs><style>.cls-1{fill-rule:evenodd}</style></defs><path id="gp.svg" class="cls-1" d="M639.044 2980H641c.322.08.745.06 1.114.15a16.364 16.364 0 0 1 2.422.69 12.594 12.594 0 0 1 6.11 5.49c.2.37.28.72.461 1.12a12.4 12.4 0 0 1 0 9.21 12.112 12.112 0 0 1-6.956 6.6 26.3 26.3 0 0 1-3.074.69 8.025 8.025 0 0 1-2.152-.07c-.339-.09-.6 0-.923-.08a12.8 12.8 0 0 1-2.5-.77c-.386-.18-.747-.26-1.114-.46a12.152 12.152 0 0 1-5.649-6.49c-.153-.4-.178-.75-.308-1.19a10.785 10.785 0 0 1-.307-4.49 19.628 19.628 0 0 1 .538-2.3 12.673 12.673 0 0 1 6.687-7.18 13.745 13.745 0 0 1 2.19-.69 8.151 8.151 0 0 0 1.505-.23zm-1.806 6.03a6.269 6.269 0 0 1-.884.19 3.837 3.837 0 0 0-2 1.69 3.005 3.005 0 0 0-.076 2.07 2.619 2.619 0 0 0 2.767 2.07.809.809 0 0 1 .076.43 1.349 1.349 0 0 1 .077.69 10.3 10.3 0 0 1-1.46.27 3.607 3.607 0 0 0-2.383 2.15 1.948 1.948 0 0 0 .423 1.8c.754 1.03 3.421 1.71 5.188 1.11 1.311-.44 3.042-1.81 2.306-3.84a3.8 3.8 0 0 0-.461-.88c-.39-.53-1.68-1.1-1.73-1.84.724-.87 2.234-1.8 1.73-3.61-.105-.38-.33-.69-.423-1.07.413-.18 1.438-.64 1.23-1.16a4.392 4.392 0 0 0-1.384-.07h-3zm-.192 1.07a2.4 2.4 0 0 1 1.844 3.11 1.089 1.089 0 0 1-1.46.85 2.735 2.735 0 0 1-1.307-3.23 2.323 2.323 0 0 1 .692-.69.383.383 0 0 0 .231-.04zm6.763 5.26a11.784 11.784 0 0 0 .077 2.34h.077a.959.959 0 0 0 .961-.07 8.417 8.417 0 0 0 .077-2.23 9.9 9.9 0 0 1 2.19-.04.309.309 0 0 1 .154-.08 1.557 1.557 0 0 0 .039-.92.139.139 0 0 0-.077-.11 8.685 8.685 0 0 0-2.268-.08 9.544 9.544 0 0 1-.038-2.19.527.527 0 0 1-.077-.15 2.084 2.084 0 0 0-1-.04 6.483 6.483 0 0 0-.116 2.34 9.322 9.322 0 0 1-2.19.04 1.045 1.045 0 0 0-.154.12 1.488 1.488 0 0 0 0 .99 11.178 11.178 0 0 0 2.345.08zm-6.687 1.77a2.709 2.709 0 0 1 2.575 1.11 1.5 1.5 0 0 1-.346 1.8 3.027 3.027 0 0 1-3.843-.42 1.248 1.248 0 0 1-.269-1.11 2.289 2.289 0 0 1 1.307-1.23 4.348 4.348 0 0 0 .576-.15z" transform="translate(-628 -2980)"/></svg>