<svg xmlns="http://www.w3.org/2000/svg" width="156" height="101" viewBox="0 0 156 101"><defs><style>.cls-1{fill:#333234;fill-rule:evenodd}</style></defs><path id="logo_min.svg" class="cls-1" d="M789 271c4.314-.09 8.039 1.461 8 6-3.477 3.307-5.039 14.732-7 20-6.8 18.275-14.86 38.962-15 63-6.034-1.016-5.1-5-8.5-7-5.906-3.476-22.545-2.185-29 0a74.737 74.737 0 0 0-19 10c-1.589 1.153-5.546 4.316-6.5 6-.7 1.239.212 2.371-1 3h-2.5c-1.652-3.346-2.522-6.053-2.5-11.5l5-5.5c8.356-6.215 28.062-17.391 44.5-13 4.459 1.191 8.413 3.729 12.5 5 .361-15.821 9.709-29.8 12-44.5h-1c-.6 4.305-5.276 12.562-10.5 12.5-1.531-1.5-4.32-2.188-5.5-4-1.137-1.746-.079-2.957-2-4-.731 3.452-3.046 9.633-7 10-1.419-1.338-3.907-1.862-5-3.5-1.059-1.587-.455-4.806-1.5-6.5v.5c-5.95 6.025-12.319 22.21-22.5 23-2.48-2.03-4.678-2.7-5-7a12.532 12.532 0 0 0 3-3h.5v.5c1.186 1.036.735 1.261 3 1.5 4.086-3.213 12.829-5.186 13.5-11.5-3.215-.848-4.066-2.956-6-5-.317-10.447 2.184-26.667 9-29 3.483-2.335 8.373 1.421 11 2 .366-2.682 1.554-3.831 2-6.5 3.413.293 5.915 1.717 6 5.5-2.951 3.476-6.764 25.043-7 32h1c1.752-3.177 4.707-6.715 6-10 1.109-2.818.161-5.238 1-8a38.842 38.842 0 0 1 9-16c7.514-.6 8.636 1.17 14 3 .747-3.028 2.458-4.725 3-8zm-87 70h-2a89.089 89.089 0 0 0-6-7c.134-18.225 7.862-33.432 9-50.5h-1l-3.5 2c-.266 13.238-7.42 21.847-14.5 28.5h-4.5c-1.3-1.294-3.443-1.99-4.5-3.5-1.019-1.457-.311-2.134-2-3v.5c-4.2 4.9-4.681 16.154-13.5 16-2.8-1.988-4.618-.79-4.5-6 1.7-2.446.967-5.747 2-9 1.6-5.051 3.434-11.361 5-16.5.806-2.644 2.46-8.406 1-9.5v.5c-4.669 4.737-8.975 12.945-12 19l-3.5 10.5a3.373 3.373 0 0 1-2 .5c-3.242-3.117-4.7-2.961-4.5-10 1.472-1.74.83-4.847 1.5-7.5 1.556-6.164 3.016-12.523 2.5-18a5.489 5.489 0 0 0 1.5-1 1.708 1.708 0 0 1 1 .5 8.42 8.42 0 0 1 6.5 6.5c-1.408 2.016-2.912 10.319-3 13.5h.5v-.5c4.338-4.784 10.755-21.768 17-23 2.506 2.98 4.584 2.432 4.5 8.5-2.182 2.978-1.705 7.627-3 11.5-2.308 6.9-5.517 14.759-6 23h1v-1c2.032-2.088 7.1-10.248 8-13v-10c1.976-7.936 4.223-18.357 14-18.5 2.516 1.7 5.508 1.092 8.5 2.5 2.5 1.177 1.432 3.96 5 4.5.939-.947 2.171-1.426 3-2.5.715-1.042.314-1.782 1.5-2.5.608-.372.5-.068 2 0 3.387 3.288 5.18 3.165 5 10.5-1.82 2.6-2.827 8.845-3 12.5h.5v-.5c5.286-7.531 5.984-21.478 17-23 2.579 2.4 6.051 3.431 6.5 8 1.935 2.87-.3 9.255-1 11.5-2.652 8.475-3.734 16.934-15.5 16.5a1.808 1.808 0 0 0-1-.5c-.766-1.232-1.146-1.138-1.5-3 8.529-3.418 10.632-12.044 10.5-24a3.054 3.054 0 0 1-1-1 1.708 1.708 0 0 0-1 .5c-5.22 1.59-6.449 7.641-8.5 12.5-4 9.472-5.718 19.05-9 30-1.36 4.538-2.919 8.418-3 14.5zm66-29h1.5c2.959-9.806 13.261-20.374 15-31.5a7.855 7.855 0 0 0-2.5-.5c-8.838 8.605-13.994 14.255-14 32zm-77.5-31.5l.5 1.5h2v-.5a12.915 12.915 0 0 0-2.5-1zm59.5 0c-6.24 6.7-8.98 14.839-9 28h1v-.5c3.554-3.9 9.368-20.848 11-27a9.146 9.146 0 0 0-3-.5zm-63 3.5c-1.7 5.233-10.855 18.946-5.5 26a2.546 2.546 0 0 0 1.5.5c4.758-5.06 6.484-9.81 9-17.5.5-1.525 2.157-5.395 1.5-6.5a20.386 20.386 0 0 0-6.5-2.5z" transform="translate(-641 -271)"/></svg>