<svg xmlns="http://www.w3.org/2000/svg" width="2915" height="201.5">
  <defs>
    <style>
      .cls-1 { fill: #fff; fill-rule: evenodd; }
    </style>
  </defs>
  <path id="new_vector_shape_done" d="M-50 0h2965v1c-5.25 1.732-11.84 9.45-16 13-10.85 9.262-23.15 16.838-34 26-2.06 1.743-4.94 2.257-7 4-2.6 2.194-5.62 5.222-8.5 7h-1.5c-18.86 13.624-39.31 25.94-59 39-2.25 1.49-4.72 1.5-7 3-9.1 6.008-19.59 11.263-29 17h-2c-6.17 3.8-13.48 7.615-20 11-1.41.73-2.55.166-4 1-20.15 11.6-43.97 19.393-66 29-13.15 5.733-28.28 7.918-41 14h-3c-1.84.727-5.15 2.287-7 3h-3c-11.81 4.545-26.36 6.56-38.5 11-3.08 1.127-5.34-.142-8.5 1-10.51 3.8-24.22 4.216-35 8h-5c-3.61 1.08-9.5 1.78-13 3h-6c-4.15 1.226-10.92 1.586-15 3h-7.5c-12.32 3.62-29.43 1.322-42 5h-15c-5.57 1.45-14.76-.628-21.5 1-10.95 2.644-27.29 1-40 1-7.68 0-17.42.59-23.5-1-6.69-1.75-17.5.588-24-1h-15c-11.21-2.96-26.62-.815-37.5-4h-9.5c-2.05-.714-7.4-1.384-9.5-2h-8c-9.37-2.77-21.93-1.848-31-5h-6.5c-9.46-3.315-22.17-2.735-31.5-6h-5.5c-8.28-2.92-19.31-3.1-27.5-6-3.61-1.276-6.4.286-10-1-4.33-1.547-10.7-2.47-15-4h-4.5c-4.21-1.512-10.18-2.655-14.5-4h-3.5c-12.28-4.51-27.17-6.13-39.5-10h-3.5c-2.26-.835-6.24-2.167-8.5-3h-3.5c-5.87-2.194-13.67-3.835-19.5-6h-3.5c-18.33-6.854-39.51-10.057-57.5-17h-3c-4.25-1.64-9.79-3.385-14-5h-3c-22.25-8.69-46.31-13.575-69-22-28.66-10.64-59.17-19.45-87-31-13.76-5.71-28.25-8.535-41-15h-2.5c-.63-.262-2.87-1.745-3.5-2h-2.5c-.17-.333-.33-.667-.5-1h-2.5c-9.83-4.013-21.46-7.117-31.5-11-3.34-1.294-6.65-.713-10-2-11.02-4.23-24.66-5.914-36-10h-4c-4.25-1.53-10.68-2.48-15-4h-5c-7.29-2.56-17.54-2.413-25-5-4.68-1.623-10.62.42-15.5-1-2.53-.737-7.34-.084-10.5-1-11.49-3.335-29.28-2-43.5-2-14.08 0-31.67-1.315-43 2h-8.5c-1.84.545-7.16 1.46-9 2h-6.5c-3.61 1.075-9.5 1.772-13 3-3.79 1.33-6.72-.348-10.5 1-5.46 1.947-13.16 3.067-18.5 5h-4c-.81.3-3.61 1.713-4.5 2h-3c-9.16 2.975-19.81 5.525-28.5 9-2.27.907-3.74.088-6 1-5.63 2.268-12.45 4.74-18 7-2.15.877-3.36.1-5.5 1-14.16 5.914-30.77 10.684-44 18-1.63.9-2.79.23-4.5 1-3.93 1.768-8.79 3.95-12.5 6-2.35 1.3-4.55.863-7 2-5.96 2.763-13.25 5.8-19 9-2.34 1.307-4.55.865-7 2-12.06 5.586-26.39 10.577-38 17-4.64 2.57-9.64 2.816-14.5 5-8.89 4-18.97 8.246-28 12-7.41 3.08-14.77 4.587-21.5 8h-2.5c-2.69 1.13-6.3 2.9-9 4-2.16.88-3.34.118-5.5 1-18.7 7.635-40.44 11.746-60 19h-3.5c-.17.333-.33.667-.5 1h-3.5c-.17.333-.33.667-.5 1h-3.5c-14.39 5.32-32.67 5.8-47.5 11h-5c-3.55 1.058-9.465 1.77-13 3h-6c-6.73 2.34-16.5 1.948-23.5 4H958c-11.07 3.226-26.585 1-38 4-5.506 1.445-25.247.037-29.5-1H880a75.45 75.45 0 0 1-16-2h-8c-4.514-1.334-11.68-1.5-16-3h-6.5c-5.62-1.968-13.816-2.31-19.5-4h-5c-3.084-1.09-8.415-1.91-11.5-3H793c-14.09-4.275-30.89-5.1-44.5-10-3.192-1.148-5.248 0-8.5-1-10.012-3.1-22.21-4.477-32-8-3.165-1.14-5.34.15-8.5-1-16.292-5.938-36.172-7.1-52.5-13h-4c-4.022-1.458-9.975-2.552-14-4h-4c-5.336-1.934-12.677-3.1-18-5h-4.5c-8.633-3.094-19.8-3.893-28.5-7-3.293-1.176-5.71.183-9-1-10.963-3.942-24.94-4.11-36-8-3.79-1.333-6.714.34-10.5-1-12.5-4.42-28.556-4.175-41.5-8-3.984-1.177-8.637.348-12.5-1-13.4-4.675-32.51-2.9-46.5-7h-8c-2.54-.744-8.518-1.142-11-2h-10c-3.105-.81-10.437-1.1-13.5-2h-9a23.62 23.62 0 0 1-6.5-1h-19c-10.372-2.32-25.434-1-37.5-1-8.987 0-20.118-.724-27.5 1h-17.5c-13.057 3.457-30.762.752-43 5-4.137 1.436-9.242-.27-13.5 1-13.893 4.144-30.465 4.25-43.5 9-2.966 1.08-5.04-.094-8 1-9.432 3.485-20.9 5.474-30 9h-3c-6.745 2.636-14.958 5.2-21.5 8-2.788 1.194-5.28.6-8 2-6.223 3.213-13.24 4.87-20 8-8.712 4.033-18.147 8.638-26.5 13-5.11 2.67-10.7 3.848-15.5 7-17.06 11.2-35.6 20.167-52 32-5.066 3.654-10.238 7.973-15 12-1.153.975-2.853 1.02-4 2-1.754 1.5-2.44 3.135-5 4V0z" class="cls-1"/>
</svg>
