<svg xmlns="http://www.w3.org/2000/svg" width="2963" height="434">
  <defs>
    <style>
      .cls-1 { fill: #fff; fill-rule: evenodd; }
    </style>
  </defs>
  <path id="new_vector_shape_done" d="M2963 434H0v-1a59.2 59.2 0 0 0 17.5-2h7c4.34-1.29 11.2-1.73 15.5-3h5.5c5.736-1.72 13.97-2.06 19.5-4h5c5.234-1.58 12.368-2.46 17.5-4H92c6.092-2.18 14.363-3.13 20.5-5h4c14.614-5.29 32.213-6.71 46.5-12h3.5c7.993-2.99 16.828-4.13 25.5-7 25.532-8.44 52.817-15.03 77-25 5.527-2.28 11.483-2.7 17-5 14.01-5.85 29.6-11.23 43.5-17h2.5c3.222-1.35 7.276-3.66 10.5-5h2.5c56.77-24.26 114.6-46.58 170-72 9.422-4.32 18.985-7.88 28-12 2.523-1.15 4.484-.83 7-2 39.09-18.11 80.963-33.17 121.5-50 3.777-1.57 6.785-1.37 10.5-3 17.38-7.6 37.136-12.86 55-20 3.264-1.31 5.74-.69 9-2 21.7-8.73 46.953-12.67 69.5-21 2.843-1.05 4.658.05 7.5-1 6.4-2.37 15-3.63 21.5-6h3.5c4.39-1.38 10.563-2.65 15-4h4c15.256-5.48 34.492-5.29 50.5-10h6c4.3-1.27 11.155-1.73 15.5-3h6.5c5.55-1.46 13.872-1.53 19.5-3h8.5c8.337-2.03 19.994-1.01 28.5-3h16c12.68-2.76 30.58-1 45-1 10.99 0 24.67-1.11 34 1h12c6.55.01 15.65.58 21.5 2h10c6.2 1.64 15.42 1.22 21.5 3h7.5c20.54 5.44 45.1 4.11 65 10h5c3.46 1.04 9.15 1.83 12.5 3h5c4.99 1.5 12.15 2.29 17 4h4.5c6.38 1.93 14.8 2.79 21 5 3.29 1.17 5.71-.19 9 1 4.16 1.5 10.37 2.52 14.5 4 3.16 1.13 5.42-.13 8.5 1 4.02 1.48 9.91 2.72 14 4h3.5c15.43 5.69 33.77 7.28 49 13 2.63.99 4.38 0 7 1 3.4 1.3 8.45 2.85 12 4h3c20.09 7.67 43.19 11.33 63 19 5.51 2.13 11 1.85 16.5 4 16.4 6.4 35.23 10.39 51.5 17 4.15 1.68 7.77 1.3 12 3 9.78 3.94 21.26 7.11 31 11 2.27.91 3.73.09 6 1 42.4 17.07 89.18 27.41 132 44 4.45 1.72 8.1 1.23 12.5 3 9.16 3.69 20.23 6.43 29.5 10 5.52 2.13 10.99 1.86 16.5 4 16.74 6.5 36.47 9.69 53.5 16h3.5c3.48 1.29 8.56 2.73 12 4h3.5c24.7 9.21 54.38 11.18 80.5 19h4.5c6.85 2.06 16.2 2.63 23 5h5.5c10.2 3.57 24.13 2.42 34.5 6h7c8.61 2.26 20.23 1.7 29 4h10c3.02.79 8.91-.06 13 1 5.04 1.31 16.83 1.97 22.5 2h19.5c7.59 1.62 17.53 1 26.5 1h10c6.03-1.32 13.72-1 21-1h8.5c15.68-3.69 36.58-.64 51.5-5 5.64-1.65 10.36.67 16-1 14.32-4.24 32-3.82 46-8 3.7-1.11 6.37.29 10-1 10.38-3.7 23.36-4.34 33.5-8h4c7.49-2.73 17.1-4.26 24.5-7h3.5c18.6-6.97 39.51-10.69 57.5-18 4.03-1.64 7.48-1.33 11.5-3 29.9-12.4 61.05-21.54 90-35 65.47-30.44 131.18-61.63 189-100 1.66-1.1 3.37-.86 5-2 4.56-3.18 9.64-7.29 14.5-10 3.21-1.79 6.54-2.93 9.5-5 3.01-2.1 6.29-5.21 9.5-7 5.13-2.86 9.27-6.17 14-9h1.5c11.77-8.4 24.7-16.06 36-25 4.96-3.92 11.08-6.02 16-10 11.24-9.09 23.78-17.59 35.5-26 7.46-5.35 14.73-10.78 22-16 1.73-1.24 3.88-1.63 5.5-3 7.72-6.53 16.28-12.47 24-19 2.44-2.06 5.56-2.94 8-5 3.41-2.89 6.89-6.38 10.5-9 2.09-1.52 4.53-2.32 6.5-4 9.51-8.11 19.51-17.1 30-24v434z" class="cls-1"/>
</svg>
