<svg xmlns="http://www.w3.org/2000/svg" width="649" height="347">
  <defs>
    <style>
      .cls-1 { fill: #fff; fill-rule: evenodd; }
    </style>
  </defs>
  <path id="cloud2.svg" d="M90.187 0h512.5c1.4 5.393 5.528 10.32 7.5 15.5 2.97 7.805 3.944 16.32 6 25 2.26 9.544-1.52 21.39-.5 29 .485 3.62-.87 10.072 0 12 2.675 4.662 8.334 7.288 11.5 11.5 5.568 7.41 11.185 15.484 15 24.5 2.653 6.27 4.264 13.553 6 20.5 2.93 11.724.806 28.54-2 38-8.223 27.722-21.854 45.51-44 59-7.423 4.52-16.952 7.44-26 10-4.432 1.253-12.12-.045-15.5 2.5a5.422 5.422 0 0 0-.5 3c1.912 3-.687 18.055-1.5 21-6.107 22.126-11.48 33.98-25.5 48a96.825 96.825 0 0 1-32 21.5c-5.553 2.263-12.068 3.538-18 5-16.547 4.08-36.37-.653-48-5-30.472-11.39-52.592-34.24-59.5-69h-4c-2.634-1.56-13.676-.934-17.5-2-5.98-1.667-13.018-3.268-18.5-6-2.714-1.353-4.752-3.54-8.5-4-2.317 7.13-12.314 16.715-18 21-1.768 1.332-3.182 3.7-5 5a114.066 114.066 0 0 1-30 15c-28.017 9.354-61.318-.75-79-12.5a96.016 96.016 0 0 1-23.5-23c-3.29-4.587-3.52-11.416-11.5-11.5-4.036 2.633-22.2-1.03-25.5-2-2.673-.787-3.948-.193-6.5-1a110.042 110.042 0 0 1-32.5-17 65.566 65.566 0 0 1-11.5-11c-1.62-2.148-2.884-5.41-5.5-6.5-3.385-2.133-13.16-2.873-17.5-4.5a107.384 107.384 0 0 1-24-13c-13.9-9.97-25.572-26.2-32-43.5-1.685-4.536-1.683-8.446-3-13.5-2.737-10.5-3.048-27.74 0-38.5 3.757-13.263 8.877-25.062 16-35 7.71-10.756 19.548-20.543 31.5-27a104.73 104.73 0 0 1 12.5-5.5c2.81-1.047 5.87-.856 8-2.5 3.463-4.05 4.207-10.92 7-15.5 3.887-6.374 9.033-11.883 13-18z" class="cls-1"/>
</svg>
