<svg xmlns="http://www.w3.org/2000/svg" width="24" height="24" viewBox="0 0 24 24">
  <defs>
    <style>
      .cls-1 {
        fill-rule: evenodd;
      }
    </style>
  </defs>
  <path id="gp.svg" class="cls-1" d="M639.044,2980H641c0.322,0.08.745,0.06,1.114,0.15a16.364,16.364,0,0,1,2.422.69,12.594,12.594,0,0,1,6.11,5.49c0.2,0.37.28,0.72,0.461,1.12a12.4,12.4,0,0,1,0,9.21,12.112,12.112,0,0,1-6.956,6.6,26.3,26.3,0,0,1-3.074.69,8.025,8.025,0,0,1-2.152-.07c-0.339-.09-0.6,0-0.923-0.08a12.8,12.8,0,0,1-2.5-.77c-0.386-.18-0.747-0.26-1.114-0.46a12.152,12.152,0,0,1-5.649-6.49c-0.153-.4-0.178-0.75-0.308-1.19a10.785,10.785,0,0,1-.307-4.49,19.628,19.628,0,0,1,.538-2.3,12.673,12.673,0,0,1,6.687-7.18,13.745,13.745,0,0,1,2.19-.69A8.151,8.151,0,0,0,639.044,2980Zm-1.806,6.03a6.269,6.269,0,0,1-.884.19,3.837,3.837,0,0,0-2,1.69,3.005,3.005,0,0,0-.076,2.07,2.619,2.619,0,0,0,2.767,2.07,0.809,0.809,0,0,1,.076.43,1.349,1.349,0,0,1,.077.69,10.3,10.3,0,0,1-1.46.27,3.607,3.607,0,0,0-2.383,2.15,1.948,1.948,0,0,0,.423,1.8c0.754,1.03,3.421,1.71,5.188,1.11,1.311-.44,3.042-1.81,2.306-3.84a3.8,3.8,0,0,0-.461-0.88c-0.39-.53-1.68-1.1-1.73-1.84,0.724-.87,2.234-1.8,1.73-3.61-0.105-.38-0.33-0.69-0.423-1.07,0.413-.18,1.438-0.64,1.23-1.16a4.392,4.392,0,0,0-1.384-.07h-3Zm-0.192,1.07a2.4,2.4,0,0,1,1.844,3.11,1.089,1.089,0,0,1-1.46.85,2.735,2.735,0,0,1-1.307-3.23,2.323,2.323,0,0,1,.692-0.69A0.383,0.383,0,0,0,637.046,2987.1Zm6.763,5.26a11.784,11.784,0,0,0,.077,2.34h0.077a0.959,0.959,0,0,0,.961-0.07,8.417,8.417,0,0,0,.077-2.23,9.9,9.9,0,0,1,2.19-.04,0.309,0.309,0,0,1,.154-0.08,1.557,1.557,0,0,0,.039-0.92,0.139,0.139,0,0,0-.077-0.11,8.685,8.685,0,0,0-2.268-.08,9.544,9.544,0,0,1-.038-2.19,0.527,0.527,0,0,1-.077-0.15,2.084,2.084,0,0,0-1-.04,6.483,6.483,0,0,0-.116,2.34,9.322,9.322,0,0,1-2.19.04,1.045,1.045,0,0,0-.154.12,1.488,1.488,0,0,0,0,.99A11.178,11.178,0,0,0,643.809,2992.36Zm-6.687,1.77a2.709,2.709,0,0,1,2.575,1.11,1.5,1.5,0,0,1-.346,1.8,3.027,3.027,0,0,1-3.843-.42,1.248,1.248,0,0,1-.269-1.11,2.289,2.289,0,0,1,1.307-1.23A4.348,4.348,0,0,0,637.122,2994.13Z" transform="translate(-628 -2980)"/>
</svg>
