<svg xmlns="http://www.w3.org/2000/svg" width="24" height="24" viewBox="0 0 24 24">
  <defs>
    <style>
      .cls-1 {
        fill-rule: evenodd;
      }
    </style>
  </defs>
  <path id="instagram.svg" class="cls-1" d="M519.1,3202c6.435-.11,10.394,3.27,12.118,7.84,0.217,0.58.387,1.25,0.559,1.9,0.113,0.43.087,0.93,0.186,1.34a7.581,7.581,0,0,1-.062,1.93c-0.074.31,0.011,0.54-.062,0.84a20.38,20.38,0,0,1-.621,2.24c-0.083.21-.088,0.39-0.187,0.59a12.43,12.43,0,0,1-6.96,6.59,16.624,16.624,0,0,1-2.206.56c-0.317.08-.685,0.06-0.963,0.13a7.641,7.641,0,0,1-1.926-.06H518.6c-0.365-.09-0.776-0.08-1.15-0.19a19.719,19.719,0,0,1-2.33-.81,12.208,12.208,0,0,1-6.152-6.22,11.113,11.113,0,0,1-.559-1.81,11.326,11.326,0,0,1-.249-4.79,18.062,18.062,0,0,1,.5-2.02,12.366,12.366,0,0,1,6.774-7.19,14.968,14.968,0,0,1,2.33-.68A9.322,9.322,0,0,0,519.1,3202Zm0.093,5.6a1.44,1.44,0,0,1-.559.03h-1.4c-1.973,0-3.115.15-3.667,1.65a5.35,5.35,0,0,0-.124,1.65v6.19a6.811,6.811,0,0,0,.062,1.68,2.638,2.638,0,0,0,1.274,1.62c0.828,0.43,2.462.25,3.667,0.25a12.26,12.26,0,0,0,2.423,0h0.994a8.647,8.647,0,0,0,3.232-.25,2.624,2.624,0,0,0,1.211-1.37,4.45,4.45,0,0,0,.156-1.3c0-.13-0.041-0.36-0.031-0.44a14.959,14.959,0,0,0,.031-1.77v-3.18c0-1.36.09-2.84-.435-3.67a2.564,2.564,0,0,0-1.336-.96,7.716,7.716,0,0,0-2.02-.1Zm3.6,1.59a12.337,12.337,0,0,1,2.113.03v2.05a10.485,10.485,0,0,1-2.113.04A10.082,10.082,0,0,1,522.793,3209.19Zm-3.138,2.68,0.777,0.03a2.358,2.358,0,0,1,1.585,3.26,2.522,2.522,0,0,1-1.9,1.28,1.852,1.852,0,0,1-1.149-.25,2.294,2.294,0,0,1-1.3-1.59v-0.37a1.767,1.767,0,0,1,.062-0.75,2.516,2.516,0,0,1,1.336-1.46A3.892,3.892,0,0,0,519.655,3211.87Zm-4.971.99h1.864a4.921,4.921,0,0,1-.155.9,3.711,3.711,0,0,0,.5,2.31,4.085,4.085,0,0,0,2.268,1.61,3.711,3.711,0,0,0,3.542-1.24,4.321,4.321,0,0,0,.684-1.25c0.062-.18.015-0.32,0.062-0.52a1.574,1.574,0,0,0,.062-0.63,6.741,6.741,0,0,1-.186-1.18h1.833a7.307,7.307,0,0,1,.031,1.65v3.61a2.074,2.074,0,0,0-.062.4,1.218,1.218,0,0,1-.56.72,6.732,6.732,0,0,1-2.3.15h-4.722a4.769,4.769,0,0,1-2.424-.28c-0.469-.34-0.435-1.11-0.435-1.92v-4.33Z" transform="translate(-508 -3202)"/>
</svg>
