<svg xmlns="http://www.w3.org/2000/svg" width="24" height="24" viewBox="0 0 24 24">
  <defs>
    <style>
      .cls-1 {
        fill-rule: evenodd;
      }
    </style>
  </defs>
  <path id="vk.svg" class="cls-1" d="M845.826,2144c6.659-.09,10.424,2.98,12.346,7.59a11.955,11.955,0,0,1-7.075,15.75c-0.886.33-1.938,0.41-2.9,0.66h-1.614a10.052,10.052,0,0,1-4.416-1.04c-0.265-.13-0.5-0.15-0.76-0.29a12.284,12.284,0,0,1-5.46-5.88,16.118,16.118,0,0,1-.57-1.9,11.116,11.116,0,0,1-.38-3.22v-0.9c0.218-.84.279-1.77,0.57-2.56a12.453,12.453,0,0,1,6.22-7.07,14.726,14.726,0,0,1,2.469-.86A6.475,6.475,0,0,0,845.826,2144Zm-0.9,7.21a0.522,0.522,0,0,1-.332.09,1.433,1.433,0,0,0-.38.48h0.047a1.439,1.439,0,0,1,.76.57c0.476,0.61.077,2.46,0.048,3.27a0.55,0.55,0,0,1-.523.24,5.814,5.814,0,0,1-.522-0.43,15.6,15.6,0,0,1-1.472-2.42c-0.232-.46-0.346-1.25-0.855-1.42a8.852,8.852,0,0,0-2.184,0,1.906,1.906,0,0,0-.807.05,0.655,0.655,0,0,0-.095.52,3,3,0,0,1,.285.61c0.356,0.7.665,1.44,1.044,2.14,1.385,2.56,2.9,4.99,6.078,5.79a7.288,7.288,0,0,0,2.137,0c0.35-.58.312-2.15,1.092-2.19a2.451,2.451,0,0,0,.38.19,6.206,6.206,0,0,1,.855.86,3.138,3.138,0,0,0,1.282,1.14,15.448,15.448,0,0,0,3.466,0,1.37,1.37,0,0,1,.19-0.29c-0.017-1.07-1.476-2.28-2.089-2.89a2.267,2.267,0,0,1-.618-0.71c-0.2-.63.5-1.13,0.713-1.43,0.613-.85,1.982-2.31,1.994-3.6a0.734,0.734,0,0,0-.19-0.1c-0.435-.33-2.775-0.13-3.466-0.09-0.53.74-.8,1.62-1.282,2.42-0.223.36-.512,0.71-0.76,1.04a1.345,1.345,0,0,1-.95.81c-0.508-.81-0.38-1.71-0.38-2.99a1.938,1.938,0,0,0-.285-1.52C847.718,2151.05,845.646,2151.2,844.924,2151.21Z" transform="translate(-835 -2144)"/>
</svg>
